<svg xmlns="http://www.w3.org/2000/svg" viewBox="0 0 125 125"><path fill="#80d4ff" d="M81.8 98.4 73 114.8a1.9 1.9 0 1 1-1.4-.6l7-17.3a1.2 1.2 0 0 1 1.5-.6l1.2.5a1.2 1.2 0 0 1 .5 1.6Z"/><path fill="#fff" d="M114 91.4c-.5-2.6-3.5-11.6-17.8-19.5a41 41 0 0 0-26.5-3.5 16.4 16.4 0 0 0-3.7 1.3c-.8.6-.7.7 1 .6a67.1 67.1 0 0 1 12.3 1c-12.2-.7-15.4.4-15.6 1.3-1.2 4.8 2.9 9.5 2.9 9.5s.3-1 3.6-2.8A27 27 0 0 1 80.5 76a32.3 32.3 0 0 0-8.7 3.7c-2.1 1.3-5.3 3-4.2 4.4a33.5 33.5 0 0 0 12.8 9.2 13.2 13.2 0 0 1 1.4-3.7 33 33 0 0 1 5.5-7 44.2 44.2 0 0 0-4.2 10.9c-.2 1.1 0 1.3 0 1.3C89.6 98.9 99 99 99 99a2.2 2.2 0 0 0 .5-1c1-4.2-.3-11-.3-11 1.6 3 2.2 6.7 3 10.7.4 1.8-.4 1.8 4.5 1 3.3-.6 5.2-2 5.2-3.3 0-2.8-5.3-10.8-5.3-10.8 2.9 2.4 5.3 6.9 6.8 9.1.2.4.4 0 .5-.3a5.2 5.2 0 0 0 .1-2ZM95.3 75.1c-.3.8-1.8.9-3.3.1s-2.4-1.9-2-2.7 1.8-.8 3.3 0 2.4 1.8 2 2.6Z"/><path fill="#fff" d="M38.7 79.7a18.8 18.8 0 0 1 18.2-10v-.8c-12.1-2.5-22.5 4.9-22.5 4.9a3.3 3.3 0 0 1-.2 5l-3 2.3a1.5 1.5 0 0 1-.2.1 3.6 3.6 0 0 1-5.3-1.2c-3 1.2-10.5 11-13 14.6a4.4 4.4 0 0 0-.9 3.2c.9 6 8.4 5.7 8.4 5.7-1.2-3.9 7.4-14.3 7.4-14.3 2.1-2.7 5.5-.6 5.5-.6 5.2-2 6-3.8 6-3.8Z"/><path fill="#80d4ff" d="M40 86.6a9 9 0 0 1-5.4 3.3c3.7 8 20.5 28.1 20.5 28.1 2.4-.2 3-3.7 3-3.7A73.6 73.6 0 0 1 40 86.6ZM30.4 74l-2.7 1.5a2.6 2.6 0 0 0-1.2 1.4 2.1 2.1 0 0 0 1.6 2.9 3 3 0 0 0 2.6-.5l2-1.4a2.5 2.5 0 0 0 1.3-2c0-1-.4-2.2-1.8-2.3a3 3 0 0 0-1.8.3Z"/><path fill="#80d4ff" d="M110.5 32a3.9 3.9 0 0 1-1.3 2.2c5.2 26-8.7 21.7-8.7 21.7a6.7 6.7 0 0 1-1.2 2c21 7.1 11.2-25.9 11.2-25.9ZM102.5 30l-4.8 5.5c-3 3.9-10.6.6-10.6.6a1.9 1.9 0 0 0-2.3 0s-2.7 3.3-3.7 4.3a26.9 26.9 0 0 1-2.5 2.3 3.2 3.2 0 0 1-1.5.6 3.5 3.5 0 0 1-3.2-1L72.7 41a2 2 0 0 1-.8-1.8 2 2 0 0 1 1.5-1.7c3.6-1 4.2-4.3 4.3-5.7a2 2 0 0 0-.7-1.6 2.3 2.3 0 0 0-1.6-.5v.3c0 2.9-2.6 4.7-4.1 5.6a8.4 8.4 0 0 0-4.3 8.3 5.6 5.6 0 0 0 1 2.5c5.7 8 23 14 23 14-6.3-5.7-1.8-10.8-1.8-10.8.2 12.8 6.6 9.8 6.6 9.8C101.6 57 107.1 31 107.1 31c-1.7-3.7-4.6-1-4.6-1ZM95 16.2l1.2-2.3a2.3 2.3 0 0 1 2.8-.8 1.6 1.6 0 0 1 .5.2l1.7 1.2a2 2 0 0 1 .8 1.2 4.1 4.1 0 0 1-.8 3.2 10.4 10.4 0 0 1 2.1 1.2 5.8 5.8 0 0 0 .7-5.6 2.7 2.7 0 0 0-.9-1 20.9 20.9 0 0 0-3.8-2.4 5.7 5.7 0 0 0-4 .5 3.5 3.5 0 0 0-1 .8l-1.6 2s1.4 2 2.2 1.8Z"/><path fill="#fff" d="M99.5 20.5a16.7 16.7 0 0 1-8-4.4 2.7 2.7 0 0 0-2-.9c-2.6.2-8 .8-9.1 4.6a6.5 6.5 0 0 1-1.8 2.7 8.2 8.2 0 0 1-3 1.9.7.7 0 0 0-.2 0s-2.7 1.5 3 5c0 0 1.6-3.1 4.4-1.5l2.5 1.5s1.8.6 1.5 4.2c0 0 7.3 3.7 12.5-2.8 0 0 5.8-7.3 9.6 0 0 0 1.7-6.6-9.2-10.3ZM73.2 38.8c3 7 7.7-1 7.7-1l-2.4-2.1c-2.8 4-5.3 3.1-5.3 3.1Z"/><path fill="#fff" d="M81.3 33.4a3 3 0 0 1-.6-.6.7.7 0 0 1-.2-.4 6.8 6.8 0 0 1 .8-3.6s-2.7 1.5-2.5 4a2.3 2.3 0 0 0 .6 1.1 5 5 0 0 0 2.2 1.7 1.2 1.2 0 0 0 .8 0c.8-.3 2.2-1.4 2-4.6 0 0-.8 2.2-2.2 2.6a1 1 0 0 1-.9-.2Z"/><path fill="#fff" d="M61.5 33.6C55.8 28.4 45.8 24 45.8 24a16 16 0 0 1-17.4 0s-4.3 3.5-15.5 8.5a.4.4 0 0 0-.1.6l5.8 7.9a44 44 0 0 1 7-3.3l-1.3 20.5s10.4 5.1 25.1 1.2l-.8-20.9a24.5 24.5 0 0 1 5.4 3Zm-18-6.8c-7.8 7.4-15-.2-15-.2 6 3 15 .2 15 .2Zm-16.8 30 20.7 1c-10.8 4.3-20.7-1-20.7-1Z"/><path fill="#80d4ff" d="M37 19.7s-4 4-5.3 4.2l-2-1a24.5 24.5 0 0 0 7.8-6.3l.6-1a10 10 0 0 0 1-1.9l.4-1a4.6 4.6 0 0 0 .3-1.4 3 3 0 0 0-.7-2.5 2.7 2.7 0 0 0-4.6 1.5 4.4 4.4 0 0 0 0 1.4l.2 1.1-1.8.3a12.7 12.7 0 0 1-.3-1.3 8.6 8.6 0 0 1 0-1.2 4.5 4.5 0 0 1 8-3 5 5 0 0 1 1.1 4 13.6 13.6 0 0 1-3.2 6.7l5.8 4.5a8.7 8.7 0 0 1-1.8 1l-5.5-4"/></svg>